<svg width="22" height="25" viewBox="0 0 22 25" fill="none" xmlns="http://www.w3.org/2000/svg">
<path d="M20.3634 18.3348C17.1412 23.9158 10.0049 25.8279 4.42394 22.6058C2.9041 21.7283 1.62465 20.5412 0.650153 19.1261C0.324343 18.653 0.535097 17.9996 1.07595 17.806C5.47128 16.2329 7.82539 14.4098 9.19143 11.8023C10.6295 9.0571 11.0012 6.05006 9.99514 1.92822C9.85603 1.35826 10.3062 0.815574 10.8921 0.847005C12.7085 0.94446 14.4831 1.46624 16.0924 2.39537C21.6734 5.61753 23.5855 12.7539 20.3634 18.3348ZM10.7416 12.6143C9.28175 15.401 6.87821 17.3965 2.78786 19.0297C3.49749 19.8415 4.34152 20.5375 5.29894 21.0902C10.0429 23.8291 16.1089 22.2037 18.8478 17.4598C21.5867 12.7159 19.9614 6.64983 15.2174 3.91092C14.1942 3.32016 13.0943 2.92347 11.9599 2.72613C12.7149 6.67411 12.2279 9.77709 10.7416 12.6143Z" fill="#15171A"/>
</svg>
