<svg width="24" height="25" viewBox="0 0 24 25" fill="none" xmlns="http://www.w3.org/2000/svg">
<path d="M12 0.833374C12.4832 0.833374 12.875 1.22512 12.875 1.70837V3.45837C12.875 3.94162 12.4832 4.33337 12 4.33337C11.5167 4.33337 11.125 3.94162 11.125 3.45837V1.70837C11.125 1.22512 11.5167 0.833374 12 0.833374ZM12 18.3334C15.2216 18.3334 17.8333 15.7217 17.8333 12.5C17.8333 9.27838 15.2216 6.66671 12 6.66671C8.77832 6.66671 6.16665 9.27838 6.16665 12.5C6.16665 15.7217 8.77832 18.3334 12 18.3334ZM12 16.5834C9.74482 16.5834 7.91665 14.7552 7.91665 12.5C7.91665 10.2449 9.74482 8.41671 12 8.41671C14.2551 8.41671 16.0833 10.2449 16.0833 12.5C16.0833 14.7552 14.2551 16.5834 12 16.5834ZM22.7916 13.375C23.2749 13.375 23.6666 12.9833 23.6666 12.5C23.6666 12.0168 23.2749 11.625 22.7916 11.625H21.0416C20.5584 11.625 20.1666 12.0168 20.1666 12.5C20.1666 12.9833 20.5584 13.375 21.0416 13.375H22.7916ZM12 20.6667C12.4832 20.6667 12.875 21.0585 12.875 21.5417V23.2917C12.875 23.775 12.4832 24.1667 12 24.1667C11.5167 24.1667 11.125 23.775 11.125 23.2917V21.5417C11.125 21.0585 11.5167 20.6667 12 20.6667ZM2.95831 13.375C3.44156 13.375 3.83331 12.9833 3.83331 12.5C3.83331 12.0168 3.44156 11.625 2.95831 11.625H1.20831C0.725064 11.625 0.333313 12.0168 0.333313 12.5C0.333313 12.9833 0.725064 13.375 1.20831 13.375H2.95831ZM2.92293 3.42342C3.26464 3.08172 3.81866 3.08172 4.16036 3.42342L5.91036 5.17342C6.25207 5.51513 6.25207 6.06915 5.91036 6.41086C5.56866 6.75257 5.01464 6.75257 4.67293 6.41086L2.92293 4.66086C2.58122 4.31915 2.58122 3.76513 2.92293 3.42342ZM4.16036 21.5775C3.81866 21.9192 3.26464 21.9192 2.92293 21.5775C2.58122 21.2358 2.58122 20.6818 2.92293 20.3401L4.67293 18.5901C5.01464 18.2484 5.56866 18.2484 5.91036 18.5901C6.25207 18.9318 6.25207 19.4858 5.91036 19.8275L4.16036 21.5775ZM21.077 3.42342C20.7353 3.08172 20.1813 3.08172 19.8396 3.42342L18.0896 5.17342C17.7479 5.51513 17.7479 6.06915 18.0896 6.41086C18.4313 6.75257 18.9853 6.75257 19.327 6.41086L21.077 4.66086C21.4187 4.31915 21.4187 3.76513 21.077 3.42342ZM19.8396 21.5775C20.1813 21.9192 20.7353 21.9192 21.077 21.5775C21.4187 21.2358 21.4187 20.6818 21.077 20.3401L19.327 18.5901C18.9853 18.2484 18.4313 18.2484 18.0896 18.5901C17.7479 18.9318 17.7479 19.4858 18.0896 19.8275L19.8396 21.5775Z" fill="#FCFCFC"/>
</svg>
