<svg width="20" height="25" viewBox="0 0 20 25" fill="none" xmlns="http://www.w3.org/2000/svg">
<path d="M16.7132 14.8333C18.1622 14.8333 19.3369 16.0079 19.3369 17.4569V18.1283C19.3369 19.1716 18.964 20.1806 18.2856 20.9732C16.4546 23.1122 13.6696 24.1679 9.99998 24.1679C6.32981 24.1679 3.54612 23.1119 1.71877 20.972C1.04238 20.1799 0.670776 19.1725 0.670776 18.1309V17.4569C0.670776 16.0079 1.84544 14.8333 3.29447 14.8333H16.7132ZM16.7132 16.5833H3.29447C2.81194 16.5833 2.42078 16.9744 2.42078 17.4569V18.1309C2.42078 18.7558 2.64374 19.3603 3.04957 19.8355C4.51177 21.5478 6.80529 22.4179 9.99998 22.4179C13.1947 22.4179 15.4902 21.5478 16.9561 19.8352C17.3632 19.3596 17.5869 18.7543 17.5869 18.1283V17.4569C17.5869 16.9744 17.1957 16.5833 16.7132 16.5833ZM9.99998 0.838745C13.2216 0.838745 15.8333 3.45042 15.8333 6.67208C15.8333 9.89374 13.2216 12.5054 9.99998 12.5054C6.77832 12.5054 4.16664 9.89374 4.16664 6.67208C4.16664 3.45042 6.77832 0.838745 9.99998 0.838745ZM9.99998 2.58875C7.74482 2.58875 5.91665 4.41692 5.91665 6.67208C5.91665 8.92724 7.74482 10.7554 9.99998 10.7554C12.2551 10.7554 14.0833 8.92724 14.0833 6.67208C14.0833 4.41692 12.2551 2.58875 9.99998 2.58875Z" fill="#FCFCFC"/>
</svg>
